<mxfile host="app.diagrams.net" agent="Mozilla/5.0 (Windows NT 10.0; Win64; x64) AppleWebKit/537.36 (KHTML, like Gecko) Chrome/130.0.0.0 Safari/537.36" version="24.8.3">
  <diagram name="Página-1" id="pJ50Fv_Yr9pwJwZteWSv">
    <mxGraphModel dx="1834" dy="738" grid="0" gridSize="10" guides="0" tooltips="1" connect="0" arrows="0" fold="1" page="0" pageScale="1" pageWidth="827" pageHeight="1169" math="0" shadow="0">
      <root>
        <mxCell id="0" />
        <mxCell id="1" parent="0" />
        <mxCell id="jC7jOHQaZz-txsUF4_Y2-40" value="" style="verticalLabelPosition=bottom;verticalAlign=top;html=1;shape=mxgraph.basic.rect;fillColor2=none;strokeWidth=1;size=20;indent=5;fillColor=none;" vertex="1" parent="1">
          <mxGeometry x="83" y="36" width="610" height="472" as="geometry" />
        </mxCell>
        <mxCell id="jC7jOHQaZz-txsUF4_Y2-1" value="usuario (tester)" style="shape=umlActor;verticalLabelPosition=bottom;verticalAlign=top;html=1;" vertex="1" parent="1">
          <mxGeometry x="390" y="200" width="30" height="60" as="geometry" />
        </mxCell>
        <mxCell id="jC7jOHQaZz-txsUF4_Y2-2" value="Líder equipo de calidad /admin" style="shape=umlActor;verticalLabelPosition=bottom;verticalAlign=top;html=1;" vertex="1" parent="1">
          <mxGeometry x="170" y="90" width="30" height="60" as="geometry" />
        </mxCell>
        <mxCell id="jC7jOHQaZz-txsUF4_Y2-3" value="Aplicativo web" style="html=1;whiteSpace=wrap;" vertex="1" parent="1">
          <mxGeometry x="125" y="210" width="115" height="50" as="geometry" />
        </mxCell>
        <mxCell id="jC7jOHQaZz-txsUF4_Y2-5" value="Tickets Mantis" style="html=1;whiteSpace=wrap;" vertex="1" parent="1">
          <mxGeometry x="-70" y="320" width="120" height="50" as="geometry" />
        </mxCell>
        <mxCell id="jC7jOHQaZz-txsUF4_Y2-10" style="edgeStyle=orthogonalEdgeStyle;rounded=0;orthogonalLoop=1;jettySize=auto;html=1;" edge="1" parent="1">
          <mxGeometry relative="1" as="geometry">
            <mxPoint x="-10" y="377" as="targetPoint" />
            <mxPoint x="-70" y="449.5" as="sourcePoint" />
          </mxGeometry>
        </mxCell>
        <mxCell id="jC7jOHQaZz-txsUF4_Y2-6" value="Solicitante" style="shape=umlActor;verticalLabelPosition=bottom;verticalAlign=top;html=1;" vertex="1" parent="1">
          <mxGeometry x="-120" y="410" width="30" height="60" as="geometry" />
        </mxCell>
        <mxCell id="jC7jOHQaZz-txsUF4_Y2-11" value="" style="endArrow=classic;html=1;rounded=0;entryX=0;entryY=0.25;entryDx=0;entryDy=0;" edge="1" parent="1" target="jC7jOHQaZz-txsUF4_Y2-3">
          <mxGeometry width="50" height="50" relative="1" as="geometry">
            <mxPoint x="-40" y="310" as="sourcePoint" />
            <mxPoint x="-40" y="220" as="targetPoint" />
            <Array as="points">
              <mxPoint x="-40" y="223" />
            </Array>
          </mxGeometry>
        </mxCell>
        <mxCell id="jC7jOHQaZz-txsUF4_Y2-12" value="" style="endArrow=classic;html=1;rounded=0;" edge="1" parent="1">
          <mxGeometry width="50" height="50" relative="1" as="geometry">
            <mxPoint x="120" y="240" as="sourcePoint" />
            <mxPoint y="310" as="targetPoint" />
            <Array as="points">
              <mxPoint y="240" />
            </Array>
          </mxGeometry>
        </mxCell>
        <mxCell id="jC7jOHQaZz-txsUF4_Y2-13" value="Servicio Cloud" style="ellipse;shape=cloud;whiteSpace=wrap;html=1;" vertex="1" parent="1">
          <mxGeometry x="562" y="35" width="120" height="80" as="geometry" />
        </mxCell>
        <mxCell id="jC7jOHQaZz-txsUF4_Y2-15" value="" style="endArrow=classic;html=1;rounded=0;" edge="1" parent="1">
          <mxGeometry width="50" height="50" relative="1" as="geometry">
            <mxPoint x="160.29" y="200" as="sourcePoint" />
            <mxPoint x="160" y="180" as="targetPoint" />
          </mxGeometry>
        </mxCell>
        <mxCell id="jC7jOHQaZz-txsUF4_Y2-16" value="" style="endArrow=classic;html=1;rounded=0;" edge="1" parent="1">
          <mxGeometry width="50" height="50" relative="1" as="geometry">
            <mxPoint x="200" y="180" as="sourcePoint" />
            <mxPoint x="200" y="200" as="targetPoint" />
          </mxGeometry>
        </mxCell>
        <mxCell id="jC7jOHQaZz-txsUF4_Y2-17" value="" style="endArrow=classic;html=1;rounded=0;" edge="1" parent="1">
          <mxGeometry width="50" height="50" relative="1" as="geometry">
            <mxPoint x="250" y="220" as="sourcePoint" />
            <mxPoint x="380" y="220.29" as="targetPoint" />
          </mxGeometry>
        </mxCell>
        <mxCell id="jC7jOHQaZz-txsUF4_Y2-18" value="" style="endArrow=classic;html=1;rounded=0;" edge="1" parent="1">
          <mxGeometry width="50" height="50" relative="1" as="geometry">
            <mxPoint x="380" y="234.89" as="sourcePoint" />
            <mxPoint x="250" y="234.89" as="targetPoint" />
          </mxGeometry>
        </mxCell>
        <mxCell id="jC7jOHQaZz-txsUF4_Y2-20" value="" style="endArrow=none;dashed=1;html=1;dashPattern=1 3;strokeWidth=2;rounded=0;" edge="1" parent="1">
          <mxGeometry width="50" height="50" relative="1" as="geometry">
            <mxPoint x="210" y="140" as="sourcePoint" />
            <mxPoint x="260" y="120" as="targetPoint" />
            <Array as="points">
              <mxPoint x="260" y="140" />
            </Array>
          </mxGeometry>
        </mxCell>
        <mxCell id="jC7jOHQaZz-txsUF4_Y2-21" value="&lt;font style=&quot;font-size: 9px;&quot;&gt;Supervisa mediante dashboard, requiere excel&lt;/font&gt;" style="text;html=1;align=center;verticalAlign=middle;whiteSpace=wrap;rounded=0;fontStyle=2;fontColor=#3333FF;" vertex="1" parent="1">
          <mxGeometry x="220" y="90" width="110" height="30" as="geometry" />
        </mxCell>
        <mxCell id="jC7jOHQaZz-txsUF4_Y2-24" value="&lt;font style=&quot;font-size: 9px;&quot;&gt;Aplicativo web actualiza estados de manera automatica en mantis&lt;/font&gt;" style="text;html=1;align=center;verticalAlign=middle;whiteSpace=wrap;rounded=0;fontStyle=2;fontColor=#3333FF;" vertex="1" parent="1">
          <mxGeometry x="90" y="280" width="140" height="30" as="geometry" />
        </mxCell>
        <mxCell id="jC7jOHQaZz-txsUF4_Y2-62" style="edgeStyle=orthogonalEdgeStyle;rounded=0;orthogonalLoop=1;jettySize=auto;html=1;exitX=1;exitY=0.5;exitDx=0;exitDy=0;" edge="1" parent="1" source="jC7jOHQaZz-txsUF4_Y2-26">
          <mxGeometry relative="1" as="geometry">
            <mxPoint x="570" y="304.79310344827593" as="targetPoint" />
          </mxGeometry>
        </mxCell>
        <mxCell id="jC7jOHQaZz-txsUF4_Y2-26" value="&lt;font style=&quot;font-size: 9px;&quot;&gt;Resuelve los ticket con documentación rquerida&lt;/font&gt;" style="text;html=1;align=center;verticalAlign=middle;whiteSpace=wrap;rounded=0;fontStyle=2;fontColor=#3333FF;" vertex="1" parent="1">
          <mxGeometry x="400" y="290" width="140" height="30" as="geometry" />
        </mxCell>
        <mxCell id="jC7jOHQaZz-txsUF4_Y2-28" value="&lt;font style=&quot;font-size: 9px;&quot;&gt;Solicita generar reportes&lt;/font&gt;" style="text;html=1;align=center;verticalAlign=middle;whiteSpace=wrap;rounded=0;fontStyle=2;fontColor=#3333FF;" vertex="1" parent="1">
          <mxGeometry x="405" y="343" width="131" height="19" as="geometry" />
        </mxCell>
        <mxCell id="jC7jOHQaZz-txsUF4_Y2-29" value="" style="endArrow=none;dashed=1;html=1;dashPattern=1 3;strokeWidth=2;rounded=0;" edge="1" parent="1">
          <mxGeometry width="50" height="50" relative="1" as="geometry">
            <mxPoint x="420" y="310" as="sourcePoint" />
            <mxPoint x="350" y="250" as="targetPoint" />
            <Array as="points">
              <mxPoint x="390" y="310" />
              <mxPoint x="350" y="310" />
            </Array>
          </mxGeometry>
        </mxCell>
        <mxCell id="jC7jOHQaZz-txsUF4_Y2-34" value="" style="shape=message;html=1;html=1;outlineConnect=0;labelPosition=center;verticalLabelPosition=bottom;align=center;verticalAlign=top;" vertex="1" parent="1">
          <mxGeometry x="590" y="295" width="30" height="20" as="geometry" />
        </mxCell>
        <mxCell id="jC7jOHQaZz-txsUF4_Y2-42" value="" style="endArrow=none;dashed=1;html=1;dashPattern=1 3;strokeWidth=2;rounded=0;" edge="1" parent="1">
          <mxGeometry width="50" height="50" relative="1" as="geometry">
            <mxPoint x="20" y="315" as="sourcePoint" />
            <mxPoint x="90" y="295" as="targetPoint" />
            <Array as="points">
              <mxPoint x="20" y="295" />
            </Array>
          </mxGeometry>
        </mxCell>
        <mxCell id="jC7jOHQaZz-txsUF4_Y2-44" value="" style="endArrow=none;dashed=1;html=1;dashPattern=1 3;strokeWidth=2;rounded=0;exitX=0.5;exitY=1;exitDx=0;exitDy=0;entryX=0.657;entryY=0.078;entryDx=0;entryDy=0;entryPerimeter=0;" edge="1" parent="1" source="jC7jOHQaZz-txsUF4_Y2-3" target="jC7jOHQaZz-txsUF4_Y2-24">
          <mxGeometry width="50" height="50" relative="1" as="geometry">
            <mxPoint x="240" y="250.0010871159885" as="sourcePoint" />
            <mxPoint x="140" y="285.0899618900994" as="targetPoint" />
            <Array as="points" />
          </mxGeometry>
        </mxCell>
        <mxCell id="jC7jOHQaZz-txsUF4_Y2-51" value="" style="endArrow=none;dashed=1;html=1;dashPattern=1 3;strokeWidth=2;rounded=0;exitX=0.023;exitY=0.561;exitDx=0;exitDy=0;exitPerimeter=0;" edge="1" parent="1" source="jC7jOHQaZz-txsUF4_Y2-28">
          <mxGeometry width="50" height="50" relative="1" as="geometry">
            <mxPoint x="387" y="381" as="sourcePoint" />
            <mxPoint x="387" y="311" as="targetPoint" />
            <Array as="points">
              <mxPoint x="388" y="353" />
            </Array>
          </mxGeometry>
        </mxCell>
        <mxCell id="jC7jOHQaZz-txsUF4_Y2-55" value="" style="group" vertex="1" connectable="0" parent="1">
          <mxGeometry x="310" y="240" width="30" height="40" as="geometry" />
        </mxCell>
        <mxCell id="jC7jOHQaZz-txsUF4_Y2-33" value="" style="whiteSpace=wrap;html=1;shape=mxgraph.basic.document" vertex="1" parent="jC7jOHQaZz-txsUF4_Y2-55">
          <mxGeometry y="10" width="20" height="30" as="geometry" />
        </mxCell>
        <mxCell id="jC7jOHQaZz-txsUF4_Y2-36" value="" style="whiteSpace=wrap;html=1;shape=mxgraph.basic.document" vertex="1" parent="jC7jOHQaZz-txsUF4_Y2-55">
          <mxGeometry x="10" width="20" height="30" as="geometry" />
        </mxCell>
        <mxCell id="jC7jOHQaZz-txsUF4_Y2-56" value="" style="group" vertex="1" connectable="0" parent="1">
          <mxGeometry x="457" y="147" width="45.74" height="40" as="geometry" />
        </mxCell>
        <mxCell id="jC7jOHQaZz-txsUF4_Y2-57" value="" style="whiteSpace=wrap;html=1;shape=mxgraph.basic.document" vertex="1" parent="jC7jOHQaZz-txsUF4_Y2-56">
          <mxGeometry y="10" width="20" height="30" as="geometry" />
        </mxCell>
        <mxCell id="jC7jOHQaZz-txsUF4_Y2-58" value="" style="whiteSpace=wrap;html=1;shape=mxgraph.basic.document" vertex="1" parent="jC7jOHQaZz-txsUF4_Y2-56">
          <mxGeometry x="10" width="20" height="30" as="geometry" />
        </mxCell>
        <mxCell id="jC7jOHQaZz-txsUF4_Y2-59" value="" style="endArrow=classic;html=1;rounded=0;" edge="1" parent="1">
          <mxGeometry width="50" height="50" relative="1" as="geometry">
            <mxPoint x="350" y="210" as="sourcePoint" />
            <mxPoint x="440" y="185" as="targetPoint" />
            <Array as="points">
              <mxPoint x="350" y="185" />
            </Array>
          </mxGeometry>
        </mxCell>
        <mxCell id="jC7jOHQaZz-txsUF4_Y2-60" value="&lt;font style=&quot;font-size: 9px;&quot;&gt;Reportes generados&lt;/font&gt;" style="text;html=1;align=center;verticalAlign=middle;whiteSpace=wrap;rounded=0;fontStyle=2;fontColor=#3333FF;" vertex="1" parent="1">
          <mxGeometry x="440" y="190" width="140" height="30" as="geometry" />
        </mxCell>
        <mxCell id="jC7jOHQaZz-txsUF4_Y2-64" value="&lt;font style=&quot;font-size: 9px;&quot;&gt;Notificación de cierre por mail&lt;/font&gt;" style="text;html=1;align=center;verticalAlign=middle;whiteSpace=wrap;rounded=0;fontStyle=2;fontColor=#3333FF;" vertex="1" parent="1">
          <mxGeometry x="540" y="320" width="130" height="20" as="geometry" />
        </mxCell>
        <mxCell id="jC7jOHQaZz-txsUF4_Y2-65" value="&lt;font style=&quot;font-size: 9px;&quot;&gt;Administra perfiles y da acceso OK&lt;/font&gt;" style="text;html=1;align=center;verticalAlign=middle;whiteSpace=wrap;rounded=0;fontStyle=2;fontColor=#3333FF;" vertex="1" parent="1">
          <mxGeometry x="220" y="50" width="110" height="30" as="geometry" />
        </mxCell>
        <mxCell id="jC7jOHQaZz-txsUF4_Y2-70" value="" style="sketch=0;outlineConnect=0;fontColor=#232F3E;gradientColor=none;fillColor=#DD344C;strokeColor=none;dashed=0;verticalLabelPosition=bottom;verticalAlign=top;align=center;html=1;fontSize=12;fontStyle=0;aspect=fixed;pointerEvents=1;shape=mxgraph.aws4.data_encryption_key;" vertex="1" parent="1">
          <mxGeometry x="322" y="64" width="24" height="30.2" as="geometry" />
        </mxCell>
        <mxCell id="jC7jOHQaZz-txsUF4_Y2-71" value="" style="verticalLabelPosition=bottom;sketch=0;aspect=fixed;html=1;verticalAlign=top;strokeColor=none;align=center;outlineConnect=0;shape=mxgraph.citrix.process;" vertex="1" parent="1">
          <mxGeometry x="223" y="191" width="26.83" height="32" as="geometry" />
        </mxCell>
        <mxCell id="jC7jOHQaZz-txsUF4_Y2-72" value="" style="verticalLabelPosition=bottom;sketch=0;aspect=fixed;html=1;verticalAlign=top;strokeColor=none;align=center;outlineConnect=0;shape=mxgraph.citrix.proxy_server;" vertex="1" parent="1">
          <mxGeometry x="23" y="358" width="35.7" height="42" as="geometry" />
        </mxCell>
        <mxCell id="jC7jOHQaZz-txsUF4_Y2-76" value="" style="verticalLabelPosition=bottom;html=1;verticalAlign=top;align=center;strokeColor=none;fillColor=#00BEF2;shape=mxgraph.azure.notification_topic;" vertex="1" parent="1">
          <mxGeometry x="567" y="266" width="29" height="27" as="geometry" />
        </mxCell>
      </root>
    </mxGraphModel>
  </diagram>
</mxfile>
